<?xml version="1.0" encoding="UTF-8"?>
<svg width="788px" height="788px" viewBox="0 0 788 788" version="1.1" xmlns="http://www.w3.org/2000/svg" xmlns:xlink="http://www.w3.org/1999/xlink">
	<title>
		40x20
	</title>
	<g id="Page-1" stroke="none" stroke-width="1" fill="none" fill-rule="evenodd">
		<g id="40x20" transform="translate(0.000000, -0.000000)">
			<rect id="Rectangle" fill="#356434" x="0" y="5.68434189e-14" width="788" height="788">
			</rect>
			<path d="M411,169 L217,169 L217,563 L411,563 L411,169 Z" id="Rectangle" stroke="#FFFFFF" stroke-width="6" fill="#356434">
			</path>
			<text id="M" font-family="Helvetica" font-size="25" font-weight="normal" line-spacing="25" letter-spacing="2.27272727" fill="#FFFFFF">
				<tspan x="443" y="236">
					M
				</tspan>
			</text>
			<text id="H" font-family="Helvetica" font-size="25" font-weight="normal" line-spacing="25" letter-spacing="2.27272727" fill="#FFFFFF">
				<tspan x="166" y="236">
					H
				</tspan>
			</text>
			<text id="B" font-family="Helvetica" font-size="25" font-weight="normal" line-spacing="25" letter-spacing="2.27272727" fill="#FFFFFF">
				<tspan x="447" y="377">
					B
				</tspan>
			</text>
			<text id="E" font-family="Helvetica" font-size="25" font-weight="normal" line-spacing="25" letter-spacing="2.27272727" fill="#FFFFFF">
				<tspan x="167" y="377">
					E
				</tspan>
			</text>
			<text id="F" font-family="Helvetica" font-size="25" font-weight="normal" line-spacing="25" letter-spacing="2.27272727" fill="#FFFFFF">
				<tspan x="443" y="519">
					F
				</tspan>
			</text>
			<text id="K" font-family="Helvetica" font-size="25" font-weight="normal" line-spacing="25" letter-spacing="2.27272727" fill="#FFFFFF">
				<tspan x="163" y="519">
					K
				</tspan>
			</text>
			<text id="G" font-family="Helvetica" font-size="25" font-weight="normal" line-spacing="25" letter-spacing="2.27272727" fill="#FFFFFF">
				<tspan x="306" y="236">
					G
				</tspan>
			</text>
			<text id="X" font-family="Helvetica" font-size="25" font-weight="normal" line-spacing="25" letter-spacing="2.27272727" fill="#FFFFFF">
				<tspan x="308" y="377">
					X
				</tspan>
			</text>
			<text id="D" font-family="Helvetica" font-size="25" font-weight="normal" line-spacing="25" letter-spacing="2.27272727" fill="#FFFFFF">
				<tspan x="307" y="520">
					D
				</tspan>
			</text>
			<text id="A" font-family="Helvetica" font-size="25" font-weight="normal" line-spacing="25" letter-spacing="2.27272727" fill="#FFFFFF">
				<tspan x="308" y="623">
					A
				</tspan>
			</text>
			<text id="C" font-family="Helvetica" font-size="25" font-weight="normal" line-spacing="25" letter-spacing="2.27272727" fill="#FFFFFF">
				<tspan x="307" y="140">
					C
				</tspan>
			</text>
			<g id="Line-6" transform="translate(499.000000, 508.000000)">
				<text id="6mt." font-family="Helvetica" font-size="22" font-weight="normal" letter-spacing="2" fill="#93969B">
					<tspan x="9" y="37">
						6mt.
					</tspan>
				</text>
				<path id="Line-2" d="M-3.5,57.5333333 L-3.5,56.5333333 L0.5,56.533 L0.5,1.466 L-3.5,1.46666667 L-3.5,0.466666667 L5.5,0.466666667 L5.5,1.46666667 L1.5,1.466 L1.5,56.533 L5.5,56.5333333 L5.5,57.5333333 L-3.5,57.5333333 Z" fill="#000000" fill-rule="nonzero">
				</path>
			</g>
			<g id="Line-6" transform="translate(499.000000, 166.000000)">
				<text id="6mt." font-family="Helvetica" font-size="22" font-weight="normal" letter-spacing="2" fill="#93969B">
					<tspan x="9" y="37">
						6mt.
					</tspan>
				</text>
				<path id="Line-2" d="M-3.5,57.5333333 L-3.5,56.5333333 L0.5,56.533 L0.5,1.466 L-3.5,1.46666667 L-3.5,0.466666667 L5.5,0.466666667 L5.5,1.46666667 L1.5,1.466 L1.5,56.533 L5.5,56.5333333 L5.5,57.5333333 L-3.5,57.5333333 Z" fill="#000000" fill-rule="nonzero">
				</path>
			</g>
			<g id="Line-20" transform="translate(216.000000, 649.000000)">
				<text id="20mt." font-family="Helvetica" font-size="22" font-weight="normal" letter-spacing="2" fill="#93969B">
					<tspan x="66.33" y="26">
						20mt.
					</tspan>
				</text>
				<path id="Line-2" d="M1.489,0.5 L196.51,0.5 L196.51,-3.5 L197.51,-3.5 L197.51,5.5 L196.51,5.5 L196.51,1.5 L1.49,1.5 L1.49,5.5 L0.49,5.5 L0.49,5 L0.49,-3 L0.49,-3.5 L1.49,-3.5 L1.489,0.5 Z" fill="#000000" fill-rule="nonzero">
				</path>
			</g>
			<g id="Line-14" transform="translate(499.000000, 367.000000)">
				<text id="14-mt." font-family="Helvetica" font-size="22" font-weight="normal" letter-spacing="2" fill="#93969B">
					<tspan x="7" y="78">
						14 mt.
					</tspan>
				</text>
				<path id="Line-2" d="M1.5,1.499 L1.5,138.5 L5.5,138.5 L5.5,139.5 L-3.5,139.5 L-3.5,138.5 L0.5,138.5 L0.5,1.5 L-3.5,1.5 L-3.5,0.5 L-3,0.5 L5,0.5 L5.5,0.5 L5.5,1.5 L1.5,1.499 Z" fill="#000000" fill-rule="nonzero">
				</path>
			</g>
			<g id="Line-14" transform="translate(499.000000, 225.000000)">
				<text id="14-mt." font-family="Helvetica" font-size="22" font-weight="normal" letter-spacing="2" fill="#93969B">
					<tspan x="7" y="78">
						14 mt.
					</tspan>
				</text>
				<path id="Line-2" d="M1.5,1.499 L1.5,138.5 L5.5,138.5 L5.5,139.5 L-3.5,139.5 L-3.5,138.5 L0.5,138.5 L0.5,1.5 L-3.5,1.5 L-3.5,0.5 L-3,0.5 L5,0.5 L5.5,0.5 L5.5,1.5 L1.5,1.499 Z" fill="#000000" fill-rule="nonzero">
				</path>
			</g>
		</g>
	</g>
</svg>
