<?xml version="1.0" encoding="UTF-8"?>
<svg width="788px" height="788px" viewBox="0 0 788 788" version="1.1" xmlns="http://www.w3.org/2000/svg" xmlns:xlink="http://www.w3.org/1999/xlink">
    <title>60x20</title>
    <g id="Page-1" stroke="none" stroke-width="1" fill="none" fill-rule="evenodd">
        <g id="60x20">
            <rect id="Rectangle" fill="#356434" x="0" y="0" width="788" height="788"></rect>
            <rect id="Rectangle" stroke="#FFFFFF" stroke-width="6" fill="#356434" x="219" y="74" width="194" height="594"></rect>
            <text id="M" font-family="Helvetica" font-size="25" font-weight="normal" line-spacing="25" letter-spacing="2.27272727" fill="#FFFFFF">
                <tspan x="445" y="139">M</tspan>
            </text>
            <text id="H" font-family="Helvetica" font-size="25" font-weight="normal" line-spacing="25" letter-spacing="2.27272727" fill="#FFFFFF">
                <tspan x="165" y="139">H</tspan>
            </text>
            <text id="R" font-family="Helvetica" font-size="25" font-weight="normal" line-spacing="25" letter-spacing="2.27272727" fill="#FFFFFF">
                <tspan x="448" y="261">R</tspan>
            </text>
            <text id="S" font-family="Helvetica" font-size="25" font-weight="normal" line-spacing="25" letter-spacing="2.27272727" fill="#FFFFFF">
                <tspan x="168" y="261">S</tspan>
            </text>
            <text id="B" font-family="Helvetica" font-size="25" font-weight="normal" line-spacing="25" letter-spacing="2.27272727" fill="#FFFFFF">
                <tspan x="448" y="381">B</tspan>
            </text>
            <text id="E" font-family="Helvetica" font-size="25" font-weight="normal" line-spacing="25" letter-spacing="2.27272727" fill="#FFFFFF">
                <tspan x="168" y="381">E</tspan>
            </text>
            <text id="P" font-family="Helvetica" font-size="25" font-weight="normal" line-spacing="25" letter-spacing="2.27272727" fill="#FFFFFF">
                <tspan x="447" y="503">P</tspan>
            </text>
            <text id="V" font-family="Helvetica" font-size="25" font-weight="normal" line-spacing="25" letter-spacing="2.27272727" fill="#FFFFFF">
                <tspan x="167" y="503">V</tspan>
            </text>
            <text id="F" font-family="Helvetica" font-size="25" font-weight="normal" line-spacing="25" letter-spacing="2.27272727" fill="#FFFFFF">
                <tspan x="448" y="623">F</tspan>
            </text>
            <text id="K" font-family="Helvetica" font-size="25" font-weight="normal" line-spacing="25" letter-spacing="2.27272727" fill="#FFFFFF">
                <tspan x="168" y="623">K</tspan>
            </text>
            <text id="G" font-family="Helvetica" font-size="25" font-weight="normal" line-spacing="25" letter-spacing="2.27272727" fill="#FFFFFF">
                <tspan x="305" y="139">G</tspan>
            </text>
            <text id="I" font-family="Helvetica" font-size="25" font-weight="normal" line-spacing="25" letter-spacing="2.27272727" fill="#FFFFFF">
                <tspan x="311" y="261">I</tspan>
            </text>
            <text id="X" font-family="Helvetica" font-size="25" font-weight="normal" line-spacing="25" letter-spacing="2.27272727" fill="#FFFFFF">
                <tspan x="307" y="381">X</tspan>
            </text>
            <text id="L" font-family="Helvetica" font-size="25" font-weight="normal" line-spacing="25" letter-spacing="2.27272727" fill="#FFFFFF">
                <tspan x="308" y="503">L</tspan>
            </text>
            <text id="D" font-family="Helvetica" font-size="25" font-weight="normal" line-spacing="25" letter-spacing="2.27272727" fill="#FFFFFF">
                <tspan x="306" y="623">D</tspan>
            </text>
            <text id="A" font-family="Helvetica" font-size="25" font-weight="normal" line-spacing="25" letter-spacing="2.27272727" fill="#FFFFFF">
                <tspan x="307" y="720">A</tspan>
            </text>
            <text id="C" font-family="Helvetica" font-size="25" font-weight="normal" line-spacing="25" letter-spacing="2.27272727" fill="#FFFFFF">
                <tspan x="306" y="45">C</tspan>
            </text>
            <g id="Line-12" transform="translate(501.000000, 493.000000)">
                <text id="12-mt." font-family="Helvetica" font-size="22" font-weight="normal" letter-spacing="2" fill="#93969B">
                    <tspan x="7" y="67">12 mt.</tspan>
                </text>
                <path id="Line-2" d="M-3.5,117.516667 L-3.5,116.516667 L0.5,116.516 L0.5,1.483 L-3.5,1.48333333 L-3.5,0.483333333 L5.5,0.483333333 L5.5,1.48333333 L1.5,1.483 L1.5,116.516 L5.5,116.516667 L5.5,117.516667 L-3.5,117.516667 Z" fill="#000000" fill-rule="nonzero"></path>
            </g>
            <g id="Line-12" transform="translate(501.000000, 372.000000)">
                <text id="12-mt." font-family="Helvetica" font-size="22" font-weight="normal" letter-spacing="2" fill="#93969B">
                    <tspan x="7" y="67">12 mt.</tspan>
                </text>
                <path id="Line-2" d="M-3.5,117.516667 L-3.5,116.516667 L0.5,116.516 L0.5,1.483 L-3.5,1.48333333 L-3.5,0.483333333 L5.5,0.483333333 L5.5,1.48333333 L1.5,1.483 L1.5,116.516 L5.5,116.516667 L5.5,117.516667 L-3.5,117.516667 Z" fill="#000000" fill-rule="nonzero"></path>
            </g>
            <g id="Line-12" transform="translate(501.000000, 252.000000)">
                <text id="12-mt." font-family="Helvetica" font-size="22" font-weight="normal" letter-spacing="2" fill="#93969B">
                    <tspan x="7" y="67">12 mt.</tspan>
                </text>
                <path id="Line-2" d="M-3.5,117.516667 L-3.5,116.516667 L0.5,116.516 L0.5,1.483 L-3.5,1.48333333 L-3.5,0.483333333 L5.5,0.483333333 L5.5,1.48333333 L1.5,1.483 L1.5,116.516 L5.5,116.516667 L5.5,117.516667 L-3.5,117.516667 Z" fill="#000000" fill-rule="nonzero"></path>
            </g>
            <g id="Line-12" transform="translate(501.000000, 131.000000)">
                <text id="12-mt." font-family="Helvetica" font-size="22" font-weight="normal" letter-spacing="2" fill="#93969B">
                    <tspan x="7" y="67">12 mt.</tspan>
                </text>
                <path id="Line-2" d="M-3.5,117.516667 L-3.5,116.516667 L0.5,116.516 L0.5,1.483 L-3.5,1.48333333 L-3.5,0.483333333 L5.5,0.483333333 L5.5,1.48333333 L1.5,1.483 L1.5,116.516 L5.5,116.516667 L5.5,117.516667 L-3.5,117.516667 Z" fill="#000000" fill-rule="nonzero"></path>
            </g>
            <g id="Line-6" transform="translate(501.000000, 613.000000)">
                <text id="6mt." font-family="Helvetica" font-size="22" font-weight="normal" letter-spacing="2" fill="#93969B">
                    <tspan x="9" y="37"> 6mt.</tspan>
                </text>
                <path id="Line-2" d="M-3.5,57.5333333 L-3.5,56.5333333 L0.5,56.533 L0.5,1.466 L-3.5,1.46666667 L-3.5,0.466666667 L5.5,0.466666667 L5.5,1.46666667 L1.5,1.466 L1.5,56.533 L5.5,56.5333333 L5.5,57.5333333 L-3.5,57.5333333 Z" fill="#000000" fill-rule="nonzero"></path>
            </g>
            <g id="Line-6" transform="translate(501.000000, 71.000000)">
                <text id="6mt." font-family="Helvetica" font-size="22" font-weight="normal" letter-spacing="2" fill="#93969B">
                    <tspan x="9" y="37"> 6mt.</tspan>
                </text>
                <path id="Line-2" d="M-3.5,57.5333333 L-3.5,56.5333333 L0.5,56.533 L0.5,1.466 L-3.5,1.46666667 L-3.5,0.466666667 L5.5,0.466666667 L5.5,1.46666667 L1.5,1.466 L1.5,56.533 L5.5,56.5333333 L5.5,57.5333333 L-3.5,57.5333333 Z" fill="#000000" fill-rule="nonzero"></path>
            </g>
            <g id="Line-20" transform="translate(216.000000, 746.000000)">
                <text id="20mt." font-family="Helvetica" font-size="22" font-weight="normal" letter-spacing="2" fill="#93969B">
                    <tspan x="66.33" y="26">20mt.</tspan>
                </text>
                <path id="Line-2" d="M1.489,0.5 L196.51,0.5 L196.51,-3.5 L197.51,-3.5 L197.51,5.5 L196.51,5.5 L196.51,1.5 L1.49,1.5 L1.49,5.5 L0.49,5.5 L0.49,5 L0.49,-3 L0.49,-3.5 L1.49,-3.5 L1.489,0.5 Z" fill="#000000" fill-rule="nonzero"></path>
            </g>
        </g>
    </g>
</svg>